<mxfile host="app.diagrams.net" agent="Mozilla/5.0 (Macintosh; Intel Mac OS X 10_15_7) AppleWebKit/537.36 (KHTML, like Gecko) Chrome/133.0.0.0 Safari/537.36" version="26.0.11">
  <diagram name="Page-1" id="OsQP43WlHYR-hVrvrMpz">
    <mxGraphModel dx="2074" dy="1121" grid="1" gridSize="10" guides="0" tooltips="1" connect="0" arrows="0" fold="1" page="1" pageScale="1" pageWidth="1920" pageHeight="1080" math="0" shadow="0">
      <root>
        <mxCell id="0" />
        <mxCell id="1" value="channel based" parent="0" visible="0" />
        <mxCell id="R1StidT4puEd5YkUCCja-5" value="" style="shape=image;verticalLabelPosition=bottom;labelBackgroundColor=default;verticalAlign=top;aspect=fixed;imageAspect=0;image=data:image/png,iVBORw0KGgoAAAANSUhEUgAAAMAAAADACAYAAABS3GwHAAAAAXNSR0IArs4c6QAADPhJREFUeF7tXQuS1TYQtE9C9iQJJyGcJMtJQk4CnAQ4ibPzVk6M9z1L89FII7WrKKCevt3TGv21LviAwMQIrBPXHVUHAgsEACOYGgEIYGr6UXkIADYwNQIQwNT0o/IQAGxgagQggKnpR+UhANjA1AhAAFPTj8pDALCBqRGAAKamH5WHAGADUyMAAUxNPyoPAcAGpkYAApiaflQ+vAC2bftzWZZ3y7L8tizLH+lvMFsPgR/LstCfr8uyfKN/r+tK/w/5hRXAtm1/vSD+HBL18QpNPPwTUQjhBLBtG7X0f6fWfjxTilsj8ggfo4kglABSd4eMH1+/CJAIPvdbvF9LFkYAqeX/HgXYycv5FMUTRBLAF3R7wsiKBsXvI4gghAAw4A1j+MeCPq/r+qn3kncvAHR9ejehy/J13xWKIACa58fAN6YOuh8QRxAA5vtjGj+VuvtuUAQBYPAbVwBf13V933PxIwhg6xlAlO0agZeBcNc21nXhCNqXGSCWAHoHPLpgRuMDAohukc7lhwAAuDMCfWUHATjzMRrgzvCZZzcaH+gCmZvI2AlCAM78jga4M3zm2Y3GBzyAuYmMnSAE4MzvaIA7w2ee3Wh8wAOYm8jYCUIAzvyOBrgzfObZjcYHPIC5iYydIATgzO9ogDvDZ57daHzAA5ibSHmC6bDPLUKE44NUTgignF+TkCMBnm61+HBxtpmuFun6wqmR+Lg1PCZWWjGR6IAr7jEiIdBlU11dMRKdj7OpQgB1xWtxmq2rC6cggIoGcy/pqIBv22Z5kq2ba0ai8vHIbOEBKgja2PiPJWx+ywIEUMFgrpKMBnhF499haiqCaHzkzBUeIIcQ43enC7yadocgAIZBWASNArjzBV7NrhuJwkep7cEDlCKVCefU+jcfD0AARgZTmkwEwJ1b/x26JreuReCj1LawEMZB6iLstm30NBNNe3p+TS6dggA8KQ6y96RB96fZjBAEAAG8QcBh6vMR6u5TohAABHBPAPRyDb1d5v3RIxS0VcLtgwDcoH7NKALg3DIaQug+EObWtferKjENamCN27a18gAQgJI/CEAJYPJSrQSALpCSPwhACWASgOXOT06JIAAOWnfCQgBKAJMA6AknesrJ9WvRv8YYwJXiMIPgFu+YYSHMwBbhAQxAbDQOaLIhDh7AyGBKk4kCuPNq8I91XZ9KMbQMF4WP0jrDA5QilQmXNsTRYNhjQaxJ6x9lXYZDKQTAQSsvAotD8LkSNWv9IYAcNRV+j+Zyt22rOSNEp8Fo8ct1+8OR1mh85EwSHiCHkOD3iivD7vP+5+pDAAKD0ESJCrixJ2je8u8cRuXjkQ3CA2jUWTYmoDUCzcAYF2NV5AgCqAhuGjTSaTEaHNPfnI9a/U+4GpEDGT8sBMDHTBQjHZv8PQmBPMIjr0B3gdKdoM0GulcVRBdIRL880miAn2ZU/hMBrkeX24gmJjyABr0J447WIEEAExqxpsoQgAY9QdzRABdA0FWU0fiAB+jKvPovDATgzNFogDvDZ57daHzAA5ibyNgJQgDO/I4GuDN85tmNxgc8gLmJjJ0gBODM72iAO8Nnnt1ofMADmJvI2AlCAM78jga4M3zm2Y3GBzyAuYmMnSAE4MzvaIA7w2ee3Wh8wAOYm8jYCUIAzvyOBrgzfObZjcYHPIC5ibxNMB2G2ff+vzschjkeitkPwPx8uWeUToPRR1eg7P92KGk+Cwggj5FpiKiAb9tGZ4GPJ8CkuJAwPvUihqh8PAIfHkBqlnfiJaOn87+aQ/BXJSIx0B86MtnEM0AAhgZTklQEwF/K6HEj3BmujyQGbyFE4KPErvYw8AActE5hHVr8XOluN0d4CgECyFFi/HuPgKdBLV2BWKurw0XxNk7wuEmiRz64YB3DwwMw0WvU3SktZfVboyGAUiqMwvUEeMMHsTloPtccJPfEBwcUzAIp0Ep3/1OXh3u7myJXVdRq1ylCACpe+JFbA+788AUfoMcxaIBMt0mbTpe25sMSIEoLY4ALRAMb/14rcxFAANYSzKTXEvAgff4cI6bdoZZ85Coq+R0e4AFqxvf777nQxbfUKtN+H/qO3RPaNkEfjTOuLs+V8Gw2OwQBSOBXxGkBuPFUJxn9N+4152mt4cNBEAoUb1FNRNCCD23Fr+LDA5zQSYZHrz1qv8/rutJ2BfWXvNHuGTTpqZ9YggA08AviegNu8L6XaZ97h+zgEWiXqfRTD4q9+ZBWtDQePMABKYOuj0k344q81mWEAEqlZRTOE3BuXqcqqrsXpZApN+GpvAAXo3Vdu25kuy4cGYQX4MqW1c34T10i6YY8safy4qO0MdCGgwBeRUbTjt+FYLob/0EEmnMIT5JVYghAaCXSaB6AK1p/cUsqxeMcz7vsHnxYYVOSDjzAqwegaU/uRjc6jfW+BOTaYYSLdqLyQwC12TylXxtwRfdH1IWoAZ9izxK7DrX5qIHPVZrTewBhF6J518eoK/RRsEK9cYwUs0ActO6Erd3iCARAd/U8KatlHl3oBdir1bX5MAcmkyA8wLaxWrQXPLtr/Q+zQjQtyl0pZnWDIABnidYEXNj/bzbtmYNeuI+JVZ+afOTqV+P3qT2AwGC67P4cDUOwl4k1DoAAasjwIs2agKctBdRtKP1EU4eliVuEE0yJQgAWwNdKo7IAuCup3fb/FeMAVp1q8lHLhjAN+gABwQwQy1haECrwaqyZIAjAmdWagNfuLjhDdcsOAuChPvsgmLsFgjVjwqPCJrRgYM8a19RskGwQ4KUCAfD2AEEAzHUTrATzBPkmdM0WB12gG9wYAyhttGp0CIAHb+2BfU0+eDW1CT17F2jEadCqdYIAbIRXnEpNwGvPmBRX0jCg4GwDFsIM8TdPqjMBUP1Ym8fMAckkyMUrXaC7v1CZLS43fQyCs5BeB6gJuGDKkArb7UyQR31q8qE0FVH0qccAaeGIDsNznjpizZqIWBFGEgyA2Zv7IAAhOdJotQEXTIV22Q0Sbu1mi7k2H1I7kcaDB3h90JqzI5Sw7m5PkKD1F9UDApBKTRjPA3BuHqkq3QyGha3/IhmgcrGS5CE0FVG06T2AcBwgaj1FDBVEEkx9Uqrs/n/CinWEFAIoIPAqiEeLI+w+dCEC77J78KE0GVZ0eIAEl+Ao4Q40ayGJxU4msHDaU9z6wwNYsleYlleLo2hJm8wKKYxf5bm8+Cg0D3UweIADhAovQKm4eQKl8Yv6/jtMEIBac7wEPAFXegFVy1qKSusyevJRiokmHDzACT2lF6DU6FG8T5KrxzOTAbRarX2tXtX6YwygkZowrneLk1pYWhzjbI+4VzszIQhXq++VSb2PyZsPodkUR4MHuAOVQTfjmOozPZOa5t2P7wJfkpS2atPbwdyrDh+la7J6DQEUa8smYCvAjUWwg0HbjvetxySK/du9zbvkeayMfk+fvefnEXut+LCxprepwANcIGswHqjFGydd1q0PuYQhgBxCxr+3BFx45bgxAqrk1IPec+4t+VAh8SAyPEAG1cAioPEGrU0Un/YqMTAIoAQlwzA9AB5QBKbdniOdPfBhaF4LPAADTcPpSEau7KDVjJ9KAgGw+dBF6A1ww3UCHTD3Y5tMdV4VrDc+tCDCAwgQTHtxpK+0C3LMRqnS37+XKwSQ5cI2QM+Ap8UquohKu2qsAc1tEx66QBqahHF7FsBepUbdourdHXgAodFaRosggJMQ6MV57qvzpZDR/qJv3Ld9SxMvCReJj5L6YAxQgpIgTBon7N0jTRfpZvS0hcJ6h6mgWpgFkoCmiTNCi5PEQDCQEGi/D31HL7FvkqO/f6bfuzD4M3cj8HGsEzyARp0TxoUAnEkfDXBn+MyzG40PeABzExk7QQjAmd/RAHeGzzy70fiABzA3kbEThACc+R0NcGf4zLMbjQ94AHMTGTtBCMCZ39EAd4bPPLvR+IAHMDeRsROEAJz5HQ1wZ/jMsxuND3gAcxMZO0EIwJnfQa4mcUatm+zMb6WwrlkED/Cl4vZiazyR3q8IVD2fbAF2BAHQ0UPrm9IssEMaeQSaHNrJF+v/EBEEIHnFkYMBwtZDwPW4pqQaEQRAe+ipG6Q5VCLBBnGUCPT+QB5Vr3sBUCHTmVu6ZRlfHAS67/6EEUASwXd4gTDW3/3sz45kCA+QBICuUBj7X7p5RDwHWRgBHLpCFq+35HDB73IEuh/4HqsWSgBJBHSYvKdb2eSmMlZMuoWa3kYzvY26NkThBLAD0ugyqtp8RE0/xID3HrhhBXDwBvRPekuLPAONEzBdWl9GdFfRfoVLl9e3lEIQWgCllUQ4IPAIAQgAtjE1AhDA1PSj8hAAbGBqBCCAqelH5SEA2MDUCEAAU9OPykMAsIGpEYAApqYflYcAYANTIwABTE0/Kg8BwAamRgACmJp+VB4CgA1MjQAEMDX9qDwEABuYGoF/AcHWoyrXmN4RAAAAAElFTkSuQmCC;rotation=315;" parent="1" vertex="1">
          <mxGeometry x="100" y="190" width="160" height="160" as="geometry" />
        </mxCell>
        <mxCell id="R1StidT4puEd5YkUCCja-6" value="" style="shape=image;verticalLabelPosition=bottom;labelBackgroundColor=default;verticalAlign=top;aspect=fixed;imageAspect=0;image=data:image/png,iVBORw0KGgoAAAANSUhEUgAAAMAAAADACAYAAABS3GwHAAAAAXNSR0IArs4c6QAADPhJREFUeF7tXQuS1TYQtE9C9iQJJyGcJMtJQk4CnAQ4ibPzVk6M9z1L89FII7WrKKCevt3TGv21LviAwMQIrBPXHVUHAgsEACOYGgEIYGr6UXkIADYwNQIQwNT0o/IQAGxgagQggKnpR+UhANjA1AhAAFPTj8pDALCBqRGAAKamH5WHAGADUyMAAUxNPyoPAcAGpkYAApiaflQ+vAC2bftzWZZ3y7L8tizLH+lvMFsPgR/LstCfr8uyfKN/r+tK/w/5hRXAtm1/vSD+HBL18QpNPPwTUQjhBLBtG7X0f6fWfjxTilsj8ggfo4kglABSd4eMH1+/CJAIPvdbvF9LFkYAqeX/HgXYycv5FMUTRBLAF3R7wsiKBsXvI4gghAAw4A1j+MeCPq/r+qn3kncvAHR9ejehy/J13xWKIACa58fAN6YOuh8QRxAA5vtjGj+VuvtuUAQBYPAbVwBf13V933PxIwhg6xlAlO0agZeBcNc21nXhCNqXGSCWAHoHPLpgRuMDAohukc7lhwAAuDMCfWUHATjzMRrgzvCZZzcaH+gCmZvI2AlCAM78jga4M3zm2Y3GBzyAuYmMnSAE4MzvaIA7w2ee3Wh8wAOYm8jYCUIAzvyOBrgzfObZjcYHPIC5iYydIATgzO9ogDvDZ57daHzAA5ibSHmC6bDPLUKE44NUTgignF+TkCMBnm61+HBxtpmuFun6wqmR+Lg1PCZWWjGR6IAr7jEiIdBlU11dMRKdj7OpQgB1xWtxmq2rC6cggIoGcy/pqIBv22Z5kq2ba0ai8vHIbOEBKgja2PiPJWx+ywIEUMFgrpKMBnhF499haiqCaHzkzBUeIIcQ43enC7yadocgAIZBWASNArjzBV7NrhuJwkep7cEDlCKVCefU+jcfD0AARgZTmkwEwJ1b/x26JreuReCj1LawEMZB6iLstm30NBNNe3p+TS6dggA8KQ6y96RB96fZjBAEAAG8QcBh6vMR6u5TohAABHBPAPRyDb1d5v3RIxS0VcLtgwDcoH7NKALg3DIaQug+EObWtferKjENamCN27a18gAQgJI/CEAJYPJSrQSALpCSPwhACWASgOXOT06JIAAOWnfCQgBKAJMA6AknesrJ9WvRv8YYwJXiMIPgFu+YYSHMwBbhAQxAbDQOaLIhDh7AyGBKk4kCuPNq8I91XZ9KMbQMF4WP0jrDA5QilQmXNsTRYNhjQaxJ6x9lXYZDKQTAQSsvAotD8LkSNWv9IYAcNRV+j+Zyt22rOSNEp8Fo8ct1+8OR1mh85EwSHiCHkOD3iivD7vP+5+pDAAKD0ESJCrixJ2je8u8cRuXjkQ3CA2jUWTYmoDUCzcAYF2NV5AgCqAhuGjTSaTEaHNPfnI9a/U+4GpEDGT8sBMDHTBQjHZv8PQmBPMIjr0B3gdKdoM0GulcVRBdIRL880miAn2ZU/hMBrkeX24gmJjyABr0J447WIEEAExqxpsoQgAY9QdzRABdA0FWU0fiAB+jKvPovDATgzNFogDvDZ57daHzAA5ibyNgJQgDO/I4GuDN85tmNxgc8gLmJjJ0gBODM72iAO8Nnnt1ofMADmJvI2AlCAM78jga4M3zm2Y3GBzyAuYmMnSAE4MzvaIA7w2ee3Wh8wAOYm8jYCUIAzvyOBrgzfObZjcYHPIC5ibxNMB2G2ff+vzschjkeitkPwPx8uWeUToPRR1eg7P92KGk+Cwggj5FpiKiAb9tGZ4GPJ8CkuJAwPvUihqh8PAIfHkBqlnfiJaOn87+aQ/BXJSIx0B86MtnEM0AAhgZTklQEwF/K6HEj3BmujyQGbyFE4KPErvYw8AActE5hHVr8XOluN0d4CgECyFFi/HuPgKdBLV2BWKurw0XxNk7wuEmiRz64YB3DwwMw0WvU3SktZfVboyGAUiqMwvUEeMMHsTloPtccJPfEBwcUzAIp0Ep3/1OXh3u7myJXVdRq1ylCACpe+JFbA+788AUfoMcxaIBMt0mbTpe25sMSIEoLY4ALRAMb/14rcxFAANYSzKTXEvAgff4cI6bdoZZ85Coq+R0e4AFqxvf777nQxbfUKtN+H/qO3RPaNkEfjTOuLs+V8Gw2OwQBSOBXxGkBuPFUJxn9N+4152mt4cNBEAoUb1FNRNCCD23Fr+LDA5zQSYZHrz1qv8/rutJ2BfWXvNHuGTTpqZ9YggA08AviegNu8L6XaZ97h+zgEWiXqfRTD4q9+ZBWtDQePMABKYOuj0k344q81mWEAEqlZRTOE3BuXqcqqrsXpZApN+GpvAAXo3Vdu25kuy4cGYQX4MqW1c34T10i6YY8safy4qO0MdCGgwBeRUbTjt+FYLob/0EEmnMIT5JVYghAaCXSaB6AK1p/cUsqxeMcz7vsHnxYYVOSDjzAqwegaU/uRjc6jfW+BOTaYYSLdqLyQwC12TylXxtwRfdH1IWoAZ9izxK7DrX5qIHPVZrTewBhF6J518eoK/RRsEK9cYwUs0ActO6Erd3iCARAd/U8KatlHl3oBdir1bX5MAcmkyA8wLaxWrQXPLtr/Q+zQjQtyl0pZnWDIABnidYEXNj/bzbtmYNeuI+JVZ+afOTqV+P3qT2AwGC67P4cDUOwl4k1DoAAasjwIs2agKctBdRtKP1EU4eliVuEE0yJQgAWwNdKo7IAuCup3fb/FeMAVp1q8lHLhjAN+gABwQwQy1haECrwaqyZIAjAmdWagNfuLjhDdcsOAuChPvsgmLsFgjVjwqPCJrRgYM8a19RskGwQ4KUCAfD2AEEAzHUTrATzBPkmdM0WB12gG9wYAyhttGp0CIAHb+2BfU0+eDW1CT17F2jEadCqdYIAbIRXnEpNwGvPmBRX0jCg4GwDFsIM8TdPqjMBUP1Ym8fMAckkyMUrXaC7v1CZLS43fQyCs5BeB6gJuGDKkArb7UyQR31q8qE0FVH0qccAaeGIDsNznjpizZqIWBFGEgyA2Zv7IAAhOdJotQEXTIV22Q0Sbu1mi7k2H1I7kcaDB3h90JqzI5Sw7m5PkKD1F9UDApBKTRjPA3BuHqkq3QyGha3/IhmgcrGS5CE0FVG06T2AcBwgaj1FDBVEEkx9Uqrs/n/CinWEFAIoIPAqiEeLI+w+dCEC77J78KE0GVZ0eIAEl+Ao4Q40ayGJxU4msHDaU9z6wwNYsleYlleLo2hJm8wKKYxf5bm8+Cg0D3UweIADhAovQKm4eQKl8Yv6/jtMEIBac7wEPAFXegFVy1qKSusyevJRiokmHDzACT2lF6DU6FG8T5KrxzOTAbRarX2tXtX6YwygkZowrneLk1pYWhzjbI+4VzszIQhXq++VSb2PyZsPodkUR4MHuAOVQTfjmOozPZOa5t2P7wJfkpS2atPbwdyrDh+la7J6DQEUa8smYCvAjUWwg0HbjvetxySK/du9zbvkeayMfk+fvefnEXut+LCxprepwANcIGswHqjFGydd1q0PuYQhgBxCxr+3BFx45bgxAqrk1IPec+4t+VAh8SAyPEAG1cAioPEGrU0Un/YqMTAIoAQlwzA9AB5QBKbdniOdPfBhaF4LPAADTcPpSEau7KDVjJ9KAgGw+dBF6A1ww3UCHTD3Y5tMdV4VrDc+tCDCAwgQTHtxpK+0C3LMRqnS37+XKwSQ5cI2QM+Ap8UquohKu2qsAc1tEx66QBqahHF7FsBepUbdourdHXgAodFaRosggJMQ6MV57qvzpZDR/qJv3Ld9SxMvCReJj5L6YAxQgpIgTBon7N0jTRfpZvS0hcJ6h6mgWpgFkoCmiTNCi5PEQDCQEGi/D31HL7FvkqO/f6bfuzD4M3cj8HGsEzyARp0TxoUAnEkfDXBn+MyzG40PeABzExk7QQjAmd/RAHeGzzy70fiABzA3kbEThACc+R0NcGf4zLMbjQ94AHMTGTtBCMCZ39EAd4bPPLvR+IAHMDeRsROEAJz5HQ1wZ/jMsxuND3gAcxMZO0EIwJnfQa4mcUatm+zMb6WwrlkED/Cl4vZiazyR3q8IVD2fbAF2BAHQ0UPrm9IssEMaeQSaHNrJF+v/EBEEIHnFkYMBwtZDwPW4pqQaEQRAe+ipG6Q5VCLBBnGUCPT+QB5Vr3sBUCHTmVu6ZRlfHAS67/6EEUASwXd4gTDW3/3sz45kCA+QBICuUBj7X7p5RDwHWRgBHLpCFq+35HDB73IEuh/4HqsWSgBJBHSYvKdb2eSmMlZMuoWa3kYzvY26NkThBLAD0ugyqtp8RE0/xID3HrhhBXDwBvRPekuLPAONEzBdWl9GdFfRfoVLl9e3lEIQWgCllUQ4IPAIAQgAtjE1AhDA1PSj8hAAbGBqBCCAqelH5SEA2MDUCEAAU9OPykMAsIGpEYAApqYflYcAYANTIwABTE0/Kg8BwAamRgACmJp+VB4CgA1MjQAEMDX9qDwEABuYGoF/AcHWoyrXmN4RAAAAAElFTkSuQmCC;" parent="1" vertex="1">
          <mxGeometry x="400" y="70" width="160" height="160" as="geometry" />
        </mxCell>
        <mxCell id="R1StidT4puEd5YkUCCja-7" value="" style="shape=image;verticalLabelPosition=bottom;labelBackgroundColor=default;verticalAlign=top;aspect=fixed;imageAspect=0;image=data:image/png,iVBORw0KGgoAAAANSUhEUgAAAMAAAADACAYAAABS3GwHAAAAAXNSR0IArs4c6QAADPhJREFUeF7tXQuS1TYQtE9C9iQJJyGcJMtJQk4CnAQ4ibPzVk6M9z1L89FII7WrKKCevt3TGv21LviAwMQIrBPXHVUHAgsEACOYGgEIYGr6UXkIADYwNQIQwNT0o/IQAGxgagQggKnpR+UhANjA1AhAAFPTj8pDALCBqRGAAKamH5WHAGADUyMAAUxNPyoPAcAGpkYAApiaflQ+vAC2bftzWZZ3y7L8tizLH+lvMFsPgR/LstCfr8uyfKN/r+tK/w/5hRXAtm1/vSD+HBL18QpNPPwTUQjhBLBtG7X0f6fWfjxTilsj8ggfo4kglABSd4eMH1+/CJAIPvdbvF9LFkYAqeX/HgXYycv5FMUTRBLAF3R7wsiKBsXvI4gghAAw4A1j+MeCPq/r+qn3kncvAHR9ejehy/J13xWKIACa58fAN6YOuh8QRxAA5vtjGj+VuvtuUAQBYPAbVwBf13V933PxIwhg6xlAlO0agZeBcNc21nXhCNqXGSCWAHoHPLpgRuMDAohukc7lhwAAuDMCfWUHATjzMRrgzvCZZzcaH+gCmZvI2AlCAM78jga4M3zm2Y3GBzyAuYmMnSAE4MzvaIA7w2ee3Wh8wAOYm8jYCUIAzvyOBrgzfObZjcYHPIC5iYydIATgzO9ogDvDZ57daHzAA5ibSHmC6bDPLUKE44NUTgignF+TkCMBnm61+HBxtpmuFun6wqmR+Lg1PCZWWjGR6IAr7jEiIdBlU11dMRKdj7OpQgB1xWtxmq2rC6cggIoGcy/pqIBv22Z5kq2ba0ai8vHIbOEBKgja2PiPJWx+ywIEUMFgrpKMBnhF499haiqCaHzkzBUeIIcQ43enC7yadocgAIZBWASNArjzBV7NrhuJwkep7cEDlCKVCefU+jcfD0AARgZTmkwEwJ1b/x26JreuReCj1LawEMZB6iLstm30NBNNe3p+TS6dggA8KQ6y96RB96fZjBAEAAG8QcBh6vMR6u5TohAABHBPAPRyDb1d5v3RIxS0VcLtgwDcoH7NKALg3DIaQug+EObWtferKjENamCN27a18gAQgJI/CEAJYPJSrQSALpCSPwhACWASgOXOT06JIAAOWnfCQgBKAJMA6AknesrJ9WvRv8YYwJXiMIPgFu+YYSHMwBbhAQxAbDQOaLIhDh7AyGBKk4kCuPNq8I91XZ9KMbQMF4WP0jrDA5QilQmXNsTRYNhjQaxJ6x9lXYZDKQTAQSsvAotD8LkSNWv9IYAcNRV+j+Zyt22rOSNEp8Fo8ct1+8OR1mh85EwSHiCHkOD3iivD7vP+5+pDAAKD0ESJCrixJ2je8u8cRuXjkQ3CA2jUWTYmoDUCzcAYF2NV5AgCqAhuGjTSaTEaHNPfnI9a/U+4GpEDGT8sBMDHTBQjHZv8PQmBPMIjr0B3gdKdoM0GulcVRBdIRL880miAn2ZU/hMBrkeX24gmJjyABr0J447WIEEAExqxpsoQgAY9QdzRABdA0FWU0fiAB+jKvPovDATgzNFogDvDZ57daHzAA5ibyNgJQgDO/I4GuDN85tmNxgc8gLmJjJ0gBODM72iAO8Nnnt1ofMADmJvI2AlCAM78jga4M3zm2Y3GBzyAuYmMnSAE4MzvaIA7w2ee3Wh8wAOYm8jYCUIAzvyOBrgzfObZjcYHPIC5ibxNMB2G2ff+vzschjkeitkPwPx8uWeUToPRR1eg7P92KGk+Cwggj5FpiKiAb9tGZ4GPJ8CkuJAwPvUihqh8PAIfHkBqlnfiJaOn87+aQ/BXJSIx0B86MtnEM0AAhgZTklQEwF/K6HEj3BmujyQGbyFE4KPErvYw8AActE5hHVr8XOluN0d4CgECyFFi/HuPgKdBLV2BWKurw0XxNk7wuEmiRz64YB3DwwMw0WvU3SktZfVboyGAUiqMwvUEeMMHsTloPtccJPfEBwcUzAIp0Ep3/1OXh3u7myJXVdRq1ylCACpe+JFbA+788AUfoMcxaIBMt0mbTpe25sMSIEoLY4ALRAMb/14rcxFAANYSzKTXEvAgff4cI6bdoZZ85Coq+R0e4AFqxvf777nQxbfUKtN+H/qO3RPaNkEfjTOuLs+V8Gw2OwQBSOBXxGkBuPFUJxn9N+4152mt4cNBEAoUb1FNRNCCD23Fr+LDA5zQSYZHrz1qv8/rutJ2BfWXvNHuGTTpqZ9YggA08AviegNu8L6XaZ97h+zgEWiXqfRTD4q9+ZBWtDQePMABKYOuj0k344q81mWEAEqlZRTOE3BuXqcqqrsXpZApN+GpvAAXo3Vdu25kuy4cGYQX4MqW1c34T10i6YY8safy4qO0MdCGgwBeRUbTjt+FYLob/0EEmnMIT5JVYghAaCXSaB6AK1p/cUsqxeMcz7vsHnxYYVOSDjzAqwegaU/uRjc6jfW+BOTaYYSLdqLyQwC12TylXxtwRfdH1IWoAZ9izxK7DrX5qIHPVZrTewBhF6J518eoK/RRsEK9cYwUs0ActO6Erd3iCARAd/U8KatlHl3oBdir1bX5MAcmkyA8wLaxWrQXPLtr/Q+zQjQtyl0pZnWDIABnidYEXNj/bzbtmYNeuI+JVZ+afOTqV+P3qT2AwGC67P4cDUOwl4k1DoAAasjwIs2agKctBdRtKP1EU4eliVuEE0yJQgAWwNdKo7IAuCup3fb/FeMAVp1q8lHLhjAN+gABwQwQy1haECrwaqyZIAjAmdWagNfuLjhDdcsOAuChPvsgmLsFgjVjwqPCJrRgYM8a19RskGwQ4KUCAfD2AEEAzHUTrATzBPkmdM0WB12gG9wYAyhttGp0CIAHb+2BfU0+eDW1CT17F2jEadCqdYIAbIRXnEpNwGvPmBRX0jCg4GwDFsIM8TdPqjMBUP1Ym8fMAckkyMUrXaC7v1CZLS43fQyCs5BeB6gJuGDKkArb7UyQR31q8qE0FVH0qccAaeGIDsNznjpizZqIWBFGEgyA2Zv7IAAhOdJotQEXTIV22Q0Sbu1mi7k2H1I7kcaDB3h90JqzI5Sw7m5PkKD1F9UDApBKTRjPA3BuHqkq3QyGha3/IhmgcrGS5CE0FVG06T2AcBwgaj1FDBVEEkx9Uqrs/n/CinWEFAIoIPAqiEeLI+w+dCEC77J78KE0GVZ0eIAEl+Ao4Q40ayGJxU4msHDaU9z6wwNYsleYlleLo2hJm8wKKYxf5bm8+Cg0D3UweIADhAovQKm4eQKl8Yv6/jtMEIBac7wEPAFXegFVy1qKSusyevJRiokmHDzACT2lF6DU6FG8T5KrxzOTAbRarX2tXtX6YwygkZowrneLk1pYWhzjbI+4VzszIQhXq++VSb2PyZsPodkUR4MHuAOVQTfjmOozPZOa5t2P7wJfkpS2atPbwdyrDh+la7J6DQEUa8smYCvAjUWwg0HbjvetxySK/du9zbvkeayMfk+fvefnEXut+LCxprepwANcIGswHqjFGydd1q0PuYQhgBxCxr+3BFx45bgxAqrk1IPec+4t+VAh8SAyPEAG1cAioPEGrU0Un/YqMTAIoAQlwzA9AB5QBKbdniOdPfBhaF4LPAADTcPpSEau7KDVjJ9KAgGw+dBF6A1ww3UCHTD3Y5tMdV4VrDc+tCDCAwgQTHtxpK+0C3LMRqnS37+XKwSQ5cI2QM+Ap8UquohKu2qsAc1tEx66QBqahHF7FsBepUbdourdHXgAodFaRosggJMQ6MV57qvzpZDR/qJv3Ld9SxMvCReJj5L6YAxQgpIgTBon7N0jTRfpZvS0hcJ6h6mgWpgFkoCmiTNCi5PEQDCQEGi/D31HL7FvkqO/f6bfuzD4M3cj8HGsEzyARp0TxoUAnEkfDXBn+MyzG40PeABzExk7QQjAmd/RAHeGzzy70fiABzA3kbEThACc+R0NcGf4zLMbjQ94AHMTGTtBCMCZ39EAd4bPPLvR+IAHMDeRsROEAJz5HQ1wZ/jMsxuND3gAcxMZO0EIwJnfQa4mcUatm+zMb6WwrlkED/Cl4vZiazyR3q8IVD2fbAF2BAHQ0UPrm9IssEMaeQSaHNrJF+v/EBEEIHnFkYMBwtZDwPW4pqQaEQRAe+ipG6Q5VCLBBnGUCPT+QB5Vr3sBUCHTmVu6ZRlfHAS67/6EEUASwXd4gTDW3/3sz45kCA+QBICuUBj7X7p5RDwHWRgBHLpCFq+35HDB73IEuh/4HqsWSgBJBHSYvKdb2eSmMlZMuoWa3kYzvY26NkThBLAD0ugyqtp8RE0/xID3HrhhBXDwBvRPekuLPAONEzBdWl9GdFfRfoVLl9e3lEIQWgCllUQ4IPAIAQgAtjE1AhDA1PSj8hAAbGBqBCCAqelH5SEA2MDUCEAAU9OPykMAsIGpEYAApqYflYcAYANTIwABTE0/Kg8BwAamRgACmJp+VB4CgA1MjQAEMDX9qDwEABuYGoF/AcHWoyrXmN4RAAAAAElFTkSuQmCC;rotation=45;" parent="1" vertex="1">
          <mxGeometry x="700" y="190" width="160" height="160" as="geometry" />
        </mxCell>
        <mxCell id="R1StidT4puEd5YkUCCja-8" value="" style="shape=image;verticalLabelPosition=bottom;labelBackgroundColor=default;verticalAlign=top;aspect=fixed;imageAspect=0;image=data:image/png,iVBORw0KGgoAAAANSUhEUgAAAMAAAADACAYAAABS3GwHAAAAAXNSR0IArs4c6QAADPhJREFUeF7tXQuS1TYQtE9C9iQJJyGcJMtJQk4CnAQ4ibPzVk6M9z1L89FII7WrKKCevt3TGv21LviAwMQIrBPXHVUHAgsEACOYGgEIYGr6UXkIADYwNQIQwNT0o/IQAGxgagQggKnpR+UhANjA1AhAAFPTj8pDALCBqRGAAKamH5WHAGADUyMAAUxNPyoPAcAGpkYAApiaflQ+vAC2bftzWZZ3y7L8tizLH+lvMFsPgR/LstCfr8uyfKN/r+tK/w/5hRXAtm1/vSD+HBL18QpNPPwTUQjhBLBtG7X0f6fWfjxTilsj8ggfo4kglABSd4eMH1+/CJAIPvdbvF9LFkYAqeX/HgXYycv5FMUTRBLAF3R7wsiKBsXvI4gghAAw4A1j+MeCPq/r+qn3kncvAHR9ejehy/J13xWKIACa58fAN6YOuh8QRxAA5vtjGj+VuvtuUAQBYPAbVwBf13V933PxIwhg6xlAlO0agZeBcNc21nXhCNqXGSCWAHoHPLpgRuMDAohukc7lhwAAuDMCfWUHATjzMRrgzvCZZzcaH+gCmZvI2AlCAM78jga4M3zm2Y3GBzyAuYmMnSAE4MzvaIA7w2ee3Wh8wAOYm8jYCUIAzvyOBrgzfObZjcYHPIC5iYydIATgzO9ogDvDZ57daHzAA5ibSHmC6bDPLUKE44NUTgignF+TkCMBnm61+HBxtpmuFun6wqmR+Lg1PCZWWjGR6IAr7jEiIdBlU11dMRKdj7OpQgB1xWtxmq2rC6cggIoGcy/pqIBv22Z5kq2ba0ai8vHIbOEBKgja2PiPJWx+ywIEUMFgrpKMBnhF499haiqCaHzkzBUeIIcQ43enC7yadocgAIZBWASNArjzBV7NrhuJwkep7cEDlCKVCefU+jcfD0AARgZTmkwEwJ1b/x26JreuReCj1LawEMZB6iLstm30NBNNe3p+TS6dggA8KQ6y96RB96fZjBAEAAG8QcBh6vMR6u5TohAABHBPAPRyDb1d5v3RIxS0VcLtgwDcoH7NKALg3DIaQug+EObWtferKjENamCN27a18gAQgJI/CEAJYPJSrQSALpCSPwhACWASgOXOT06JIAAOWnfCQgBKAJMA6AknesrJ9WvRv8YYwJXiMIPgFu+YYSHMwBbhAQxAbDQOaLIhDh7AyGBKk4kCuPNq8I91XZ9KMbQMF4WP0jrDA5QilQmXNsTRYNhjQaxJ6x9lXYZDKQTAQSsvAotD8LkSNWv9IYAcNRV+j+Zyt22rOSNEp8Fo8ct1+8OR1mh85EwSHiCHkOD3iivD7vP+5+pDAAKD0ESJCrixJ2je8u8cRuXjkQ3CA2jUWTYmoDUCzcAYF2NV5AgCqAhuGjTSaTEaHNPfnI9a/U+4GpEDGT8sBMDHTBQjHZv8PQmBPMIjr0B3gdKdoM0GulcVRBdIRL880miAn2ZU/hMBrkeX24gmJjyABr0J447WIEEAExqxpsoQgAY9QdzRABdA0FWU0fiAB+jKvPovDATgzNFogDvDZ57daHzAA5ibyNgJQgDO/I4GuDN85tmNxgc8gLmJjJ0gBODM72iAO8Nnnt1ofMADmJvI2AlCAM78jga4M3zm2Y3GBzyAuYmMnSAE4MzvaIA7w2ee3Wh8wAOYm8jYCUIAzvyOBrgzfObZjcYHPIC5ibxNMB2G2ff+vzschjkeitkPwPx8uWeUToPRR1eg7P92KGk+Cwggj5FpiKiAb9tGZ4GPJ8CkuJAwPvUihqh8PAIfHkBqlnfiJaOn87+aQ/BXJSIx0B86MtnEM0AAhgZTklQEwF/K6HEj3BmujyQGbyFE4KPErvYw8AActE5hHVr8XOluN0d4CgECyFFi/HuPgKdBLV2BWKurw0XxNk7wuEmiRz64YB3DwwMw0WvU3SktZfVboyGAUiqMwvUEeMMHsTloPtccJPfEBwcUzAIp0Ep3/1OXh3u7myJXVdRq1ylCACpe+JFbA+788AUfoMcxaIBMt0mbTpe25sMSIEoLY4ALRAMb/14rcxFAANYSzKTXEvAgff4cI6bdoZZ85Coq+R0e4AFqxvf777nQxbfUKtN+H/qO3RPaNkEfjTOuLs+V8Gw2OwQBSOBXxGkBuPFUJxn9N+4152mt4cNBEAoUb1FNRNCCD23Fr+LDA5zQSYZHrz1qv8/rutJ2BfWXvNHuGTTpqZ9YggA08AviegNu8L6XaZ97h+zgEWiXqfRTD4q9+ZBWtDQePMABKYOuj0k344q81mWEAEqlZRTOE3BuXqcqqrsXpZApN+GpvAAXo3Vdu25kuy4cGYQX4MqW1c34T10i6YY8safy4qO0MdCGgwBeRUbTjt+FYLob/0EEmnMIT5JVYghAaCXSaB6AK1p/cUsqxeMcz7vsHnxYYVOSDjzAqwegaU/uRjc6jfW+BOTaYYSLdqLyQwC12TylXxtwRfdH1IWoAZ9izxK7DrX5qIHPVZrTewBhF6J518eoK/RRsEK9cYwUs0ActO6Erd3iCARAd/U8KatlHl3oBdir1bX5MAcmkyA8wLaxWrQXPLtr/Q+zQjQtyl0pZnWDIABnidYEXNj/bzbtmYNeuI+JVZ+afOTqV+P3qT2AwGC67P4cDUOwl4k1DoAAasjwIs2agKctBdRtKP1EU4eliVuEE0yJQgAWwNdKo7IAuCup3fb/FeMAVp1q8lHLhjAN+gABwQwQy1haECrwaqyZIAjAmdWagNfuLjhDdcsOAuChPvsgmLsFgjVjwqPCJrRgYM8a19RskGwQ4KUCAfD2AEEAzHUTrATzBPkmdM0WB12gG9wYAyhttGp0CIAHb+2BfU0+eDW1CT17F2jEadCqdYIAbIRXnEpNwGvPmBRX0jCg4GwDFsIM8TdPqjMBUP1Ym8fMAckkyMUrXaC7v1CZLS43fQyCs5BeB6gJuGDKkArb7UyQR31q8qE0FVH0qccAaeGIDsNznjpizZqIWBFGEgyA2Zv7IAAhOdJotQEXTIV22Q0Sbu1mi7k2H1I7kcaDB3h90JqzI5Sw7m5PkKD1F9UDApBKTRjPA3BuHqkq3QyGha3/IhmgcrGS5CE0FVG06T2AcBwgaj1FDBVEEkx9Uqrs/n/CinWEFAIoIPAqiEeLI+w+dCEC77J78KE0GVZ0eIAEl+Ao4Q40ayGJxU4msHDaU9z6wwNYsleYlleLo2hJm8wKKYxf5bm8+Cg0D3UweIADhAovQKm4eQKl8Yv6/jtMEIBac7wEPAFXegFVy1qKSusyevJRiokmHDzACT2lF6DU6FG8T5KrxzOTAbRarX2tXtX6YwygkZowrneLk1pYWhzjbI+4VzszIQhXq++VSb2PyZsPodkUR4MHuAOVQTfjmOozPZOa5t2P7wJfkpS2atPbwdyrDh+la7J6DQEUa8smYCvAjUWwg0HbjvetxySK/du9zbvkeayMfk+fvefnEXut+LCxprepwANcIGswHqjFGydd1q0PuYQhgBxCxr+3BFx45bgxAqrk1IPec+4t+VAh8SAyPEAG1cAioPEGrU0Un/YqMTAIoAQlwzA9AB5QBKbdniOdPfBhaF4LPAADTcPpSEau7KDVjJ9KAgGw+dBF6A1ww3UCHTD3Y5tMdV4VrDc+tCDCAwgQTHtxpK+0C3LMRqnS37+XKwSQ5cI2QM+Ap8UquohKu2qsAc1tEx66QBqahHF7FsBepUbdourdHXgAodFaRosggJMQ6MV57qvzpZDR/qJv3Ld9SxMvCReJj5L6YAxQgpIgTBon7N0jTRfpZvS0hcJ6h6mgWpgFkoCmiTNCi5PEQDCQEGi/D31HL7FvkqO/f6bfuzD4M3cj8HGsEzyARp0TxoUAnEkfDXBn+MyzG40PeABzExk7QQjAmd/RAHeGzzy70fiABzA3kbEThACc+R0NcGf4zLMbjQ94AHMTGTtBCMCZ39EAd4bPPLvR+IAHMDeRsROEAJz5HQ1wZ/jMsxuND3gAcxMZO0EIwJnfQa4mcUatm+zMb6WwrlkED/Cl4vZiazyR3q8IVD2fbAF2BAHQ0UPrm9IssEMaeQSaHNrJF+v/EBEEIHnFkYMBwtZDwPW4pqQaEQRAe+ipG6Q5VCLBBnGUCPT+QB5Vr3sBUCHTmVu6ZRlfHAS67/6EEUASwXd4gTDW3/3sz45kCA+QBICuUBj7X7p5RDwHWRgBHLpCFq+35HDB73IEuh/4HqsWSgBJBHSYvKdb2eSmMlZMuoWa3kYzvY26NkThBLAD0ugyqtp8RE0/xID3HrhhBXDwBvRPekuLPAONEzBdWl9GdFfRfoVLl9e3lEIQWgCllUQ4IPAIAQgAtjE1AhDA1PSj8hAAbGBqBCCAqelH5SEA2MDUCEAAU9OPykMAsIGpEYAApqYflYcAYANTIwABTE0/Kg8BwAamRgACmJp+VB4CgA1MjQAEMDX9qDwEABuYGoF/AcHWoyrXmN4RAAAAAElFTkSuQmCC;rotation=240;" parent="1" vertex="1">
          <mxGeometry x="90" y="680" width="160" height="160" as="geometry" />
        </mxCell>
        <mxCell id="R1StidT4puEd5YkUCCja-13" value="" style="ellipse;whiteSpace=wrap;html=1;aspect=fixed;fillColor=none;dashed=1;dashPattern=8 8;movable=1;resizable=1;rotatable=1;deletable=1;editable=1;locked=0;connectable=1;opacity=80;" parent="1" vertex="1">
          <mxGeometry x="80" y="160" width="800" height="800" as="geometry" />
        </mxCell>
        <mxCell id="R1StidT4puEd5YkUCCja-10" value="" style="shape=image;verticalLabelPosition=bottom;labelBackgroundColor=default;verticalAlign=top;aspect=fixed;imageAspect=0;image=data:image/png,iVBORw0KGgoAAAANSUhEUgAAAMAAAADACAYAAABS3GwHAAAAAXNSR0IArs4c6QAADPhJREFUeF7tXQuS1TYQtE9C9iQJJyGcJMtJQk4CnAQ4ibPzVk6M9z1L89FII7WrKKCevt3TGv21LviAwMQIrBPXHVUHAgsEACOYGgEIYGr6UXkIADYwNQIQwNT0o/IQAGxgagQggKnpR+UhANjA1AhAAFPTj8pDALCBqRGAAKamH5WHAGADUyMAAUxNPyoPAcAGpkYAApiaflQ+vAC2bftzWZZ3y7L8tizLH+lvMFsPgR/LstCfr8uyfKN/r+tK/w/5hRXAtm1/vSD+HBL18QpNPPwTUQjhBLBtG7X0f6fWfjxTilsj8ggfo4kglABSd4eMH1+/CJAIPvdbvF9LFkYAqeX/HgXYycv5FMUTRBLAF3R7wsiKBsXvI4gghAAw4A1j+MeCPq/r+qn3kncvAHR9ejehy/J13xWKIACa58fAN6YOuh8QRxAA5vtjGj+VuvtuUAQBYPAbVwBf13V933PxIwhg6xlAlO0agZeBcNc21nXhCNqXGSCWAHoHPLpgRuMDAohukc7lhwAAuDMCfWUHATjzMRrgzvCZZzcaH+gCmZvI2AlCAM78jga4M3zm2Y3GBzyAuYmMnSAE4MzvaIA7w2ee3Wh8wAOYm8jYCUIAzvyOBrgzfObZjcYHPIC5iYydIATgzO9ogDvDZ57daHzAA5ibSHmC6bDPLUKE44NUTgignF+TkCMBnm61+HBxtpmuFun6wqmR+Lg1PCZWWjGR6IAr7jEiIdBlU11dMRKdj7OpQgB1xWtxmq2rC6cggIoGcy/pqIBv22Z5kq2ba0ai8vHIbOEBKgja2PiPJWx+ywIEUMFgrpKMBnhF499haiqCaHzkzBUeIIcQ43enC7yadocgAIZBWASNArjzBV7NrhuJwkep7cEDlCKVCefU+jcfD0AARgZTmkwEwJ1b/x26JreuReCj1LawEMZB6iLstm30NBNNe3p+TS6dggA8KQ6y96RB96fZjBAEAAG8QcBh6vMR6u5TohAABHBPAPRyDb1d5v3RIxS0VcLtgwDcoH7NKALg3DIaQug+EObWtferKjENamCN27a18gAQgJI/CEAJYPJSrQSALpCSPwhACWASgOXOT06JIAAOWnfCQgBKAJMA6AknesrJ9WvRv8YYwJXiMIPgFu+YYSHMwBbhAQxAbDQOaLIhDh7AyGBKk4kCuPNq8I91XZ9KMbQMF4WP0jrDA5QilQmXNsTRYNhjQaxJ6x9lXYZDKQTAQSsvAotD8LkSNWv9IYAcNRV+j+Zyt22rOSNEp8Fo8ct1+8OR1mh85EwSHiCHkOD3iivD7vP+5+pDAAKD0ESJCrixJ2je8u8cRuXjkQ3CA2jUWTYmoDUCzcAYF2NV5AgCqAhuGjTSaTEaHNPfnI9a/U+4GpEDGT8sBMDHTBQjHZv8PQmBPMIjr0B3gdKdoM0GulcVRBdIRL880miAn2ZU/hMBrkeX24gmJjyABr0J447WIEEAExqxpsoQgAY9QdzRABdA0FWU0fiAB+jKvPovDATgzNFogDvDZ57daHzAA5ibyNgJQgDO/I4GuDN85tmNxgc8gLmJjJ0gBODM72iAO8Nnnt1ofMADmJvI2AlCAM78jga4M3zm2Y3GBzyAuYmMnSAE4MzvaIA7w2ee3Wh8wAOYm8jYCUIAzvyOBrgzfObZjcYHPIC5ibxNMB2G2ff+vzschjkeitkPwPx8uWeUToPRR1eg7P92KGk+Cwggj5FpiKiAb9tGZ4GPJ8CkuJAwPvUihqh8PAIfHkBqlnfiJaOn87+aQ/BXJSIx0B86MtnEM0AAhgZTklQEwF/K6HEj3BmujyQGbyFE4KPErvYw8AActE5hHVr8XOluN0d4CgECyFFi/HuPgKdBLV2BWKurw0XxNk7wuEmiRz64YB3DwwMw0WvU3SktZfVboyGAUiqMwvUEeMMHsTloPtccJPfEBwcUzAIp0Ep3/1OXh3u7myJXVdRq1ylCACpe+JFbA+788AUfoMcxaIBMt0mbTpe25sMSIEoLY4ALRAMb/14rcxFAANYSzKTXEvAgff4cI6bdoZZ85Coq+R0e4AFqxvf777nQxbfUKtN+H/qO3RPaNkEfjTOuLs+V8Gw2OwQBSOBXxGkBuPFUJxn9N+4152mt4cNBEAoUb1FNRNCCD23Fr+LDA5zQSYZHrz1qv8/rutJ2BfWXvNHuGTTpqZ9YggA08AviegNu8L6XaZ97h+zgEWiXqfRTD4q9+ZBWtDQePMABKYOuj0k344q81mWEAEqlZRTOE3BuXqcqqrsXpZApN+GpvAAXo3Vdu25kuy4cGYQX4MqW1c34T10i6YY8safy4qO0MdCGgwBeRUbTjt+FYLob/0EEmnMIT5JVYghAaCXSaB6AK1p/cUsqxeMcz7vsHnxYYVOSDjzAqwegaU/uRjc6jfW+BOTaYYSLdqLyQwC12TylXxtwRfdH1IWoAZ9izxK7DrX5qIHPVZrTewBhF6J518eoK/RRsEK9cYwUs0ActO6Erd3iCARAd/U8KatlHl3oBdir1bX5MAcmkyA8wLaxWrQXPLtr/Q+zQjQtyl0pZnWDIABnidYEXNj/bzbtmYNeuI+JVZ+afOTqV+P3qT2AwGC67P4cDUOwl4k1DoAAasjwIs2agKctBdRtKP1EU4eliVuEE0yJQgAWwNdKo7IAuCup3fb/FeMAVp1q8lHLhjAN+gABwQwQy1haECrwaqyZIAjAmdWagNfuLjhDdcsOAuChPvsgmLsFgjVjwqPCJrRgYM8a19RskGwQ4KUCAfD2AEEAzHUTrATzBPkmdM0WB12gG9wYAyhttGp0CIAHb+2BfU0+eDW1CT17F2jEadCqdYIAbIRXnEpNwGvPmBRX0jCg4GwDFsIM8TdPqjMBUP1Ym8fMAckkyMUrXaC7v1CZLS43fQyCs5BeB6gJuGDKkArb7UyQR31q8qE0FVH0qccAaeGIDsNznjpizZqIWBFGEgyA2Zv7IAAhOdJotQEXTIV22Q0Sbu1mi7k2H1I7kcaDB3h90JqzI5Sw7m5PkKD1F9UDApBKTRjPA3BuHqkq3QyGha3/IhmgcrGS5CE0FVG06T2AcBwgaj1FDBVEEkx9Uqrs/n/CinWEFAIoIPAqiEeLI+w+dCEC77J78KE0GVZ0eIAEl+Ao4Q40ayGJxU4msHDaU9z6wwNYsleYlleLo2hJm8wKKYxf5bm8+Cg0D3UweIADhAovQKm4eQKl8Yv6/jtMEIBac7wEPAFXegFVy1qKSusyevJRiokmHDzACT2lF6DU6FG8T5KrxzOTAbRarX2tXtX6YwygkZowrneLk1pYWhzjbI+4VzszIQhXq++VSb2PyZsPodkUR4MHuAOVQTfjmOozPZOa5t2P7wJfkpS2atPbwdyrDh+la7J6DQEUa8smYCvAjUWwg0HbjvetxySK/du9zbvkeayMfk+fvefnEXut+LCxprepwANcIGswHqjFGydd1q0PuYQhgBxCxr+3BFx45bgxAqrk1IPec+4t+VAh8SAyPEAG1cAioPEGrU0Un/YqMTAIoAQlwzA9AB5QBKbdniOdPfBhaF4LPAADTcPpSEau7KDVjJ9KAgGw+dBF6A1ww3UCHTD3Y5tMdV4VrDc+tCDCAwgQTHtxpK+0C3LMRqnS37+XKwSQ5cI2QM+Ap8UquohKu2qsAc1tEx66QBqahHF7FsBepUbdourdHXgAodFaRosggJMQ6MV57qvzpZDR/qJv3Ld9SxMvCReJj5L6YAxQgpIgTBon7N0jTRfpZvS0hcJ6h6mgWpgFkoCmiTNCi5PEQDCQEGi/D31HL7FvkqO/f6bfuzD4M3cj8HGsEzyARp0TxoUAnEkfDXBn+MyzG40PeABzExk7QQjAmd/RAHeGzzy70fiABzA3kbEThACc+R0NcGf4zLMbjQ94AHMTGTtBCMCZ39EAd4bPPLvR+IAHMDeRsROEAJz5HQ1wZ/jMsxuND3gAcxMZO0EIwJnfQa4mcUatm+zMb6WwrlkED/Cl4vZiazyR3q8IVD2fbAF2BAHQ0UPrm9IssEMaeQSaHNrJF+v/EBEEIHnFkYMBwtZDwPW4pqQaEQRAe+ipG6Q5VCLBBnGUCPT+QB5Vr3sBUCHTmVu6ZRlfHAS67/6EEUASwXd4gTDW3/3sz45kCA+QBICuUBj7X7p5RDwHWRgBHLpCFq+35HDB73IEuh/4HqsWSgBJBHSYvKdb2eSmMlZMuoWa3kYzvY26NkThBLAD0ugyqtp8RE0/xID3HrhhBXDwBvRPekuLPAONEzBdWl9GdFfRfoVLl9e3lEIQWgCllUQ4IPAIAQgAtjE1AhDA1PSj8hAAbGBqBCCAqelH5SEA2MDUCEAAU9OPykMAsIGpEYAApqYflYcAYANTIwABTE0/Kg8BwAamRgACmJp+VB4CgA1MjQAEMDX9qDwEABuYGoF/AcHWoyrXmN4RAAAAAElFTkSuQmCC;rotation=120;" parent="1" vertex="1">
          <mxGeometry x="710" y="680" width="160" height="160" as="geometry" />
        </mxCell>
        <mxCell id="R1StidT4puEd5YkUCCja-15" value="" style="shape=image;verticalLabelPosition=bottom;labelBackgroundColor=default;verticalAlign=top;aspect=fixed;imageAspect=0;image=data:image/png,iVBORw0KGgoAAAANSUhEUgAAAMAAAADACAYAAABS3GwHAAAAAXNSR0IArs4c6QAAC5JJREFUeF7tnQFy3DYMRcWTtD5JmpOkOUmTk9Q5SZqTJD0Ju3BIR7PdtQiQWhL4XzMeNzW1K3zgkSBISWnjQQWAFUjAttN0KrARAAYBtAIEANr9NJ4AMAagFSAA0O6n8QSAMQCtAAGAdj+NJwCMAWgFCAC0+2k8AWAMQCtAAKDdT+MJAGMAWgECAO1+Gk8AGAPQChAAaPfTeALAGIBWgABAu5/GEwDGALQCBADa/TSeADAGoBUgANDup/EEgDEArQABgHY/jScAjAFoBQgAtPtpPAFgDEArQACg3U/jCQBjAFoBAgDtfhpPABgD0AoQAGj303gC8IAYyDn/Wb7mt23bfr/6kT/9U/7+Y9s2+ZHjW0qp/v8HXCXmVxCAk/yec/5j27YPl+CW3xL0lkMAkJ8vKaUKhuVzeM4dBQjA4NDIOf/dGfT3rogwDPaVfBwBGCRqSXP+6ujtW69ERoLPKaXn1hPY7r4CBKAzOnLOkt7UXr/z01Sny4jwkamRSrP/NSYAHfrlnKXH/9TxESNOle/nHMGoJAEwCpdz/lpyfeMnDD2NEBjlJAAG4RYL/moBUyKDLwmAUrRFg58QKP1YmxOARuEmTnYbr/C1GUcChWIEoEGsUuKUSo+n46MsorFK9LbLCMAb+pTVXKn0yGqux0NGA1kz4JaKO94jAHeEOSnXl8Wrb+UrX4JSeugCmvxT1hTenbCSLN8rIHA7xZW/CcCVICUYpcQ58lAHYFljkE101n1Et65fFs64grxThgDsxDgh+CUHf99DUtlbVHeT9nxUPfeJI8EvGQlA0aJUeb6PiLDyGcN62wKmTMJHjQaEoDiJAGzbdkLwvx898SzXKKnZCAhkLiDXCD8ngAfghMCSnv+UqssJ1woPAQEYt6dHetPTgn+fmuWcJVXjSDAgX4UGYOBuzocFf/X5wBtvPqWUPg+IJZcfAQvAwLx/2GRXG0EDF+pgJ8XIAEhVpae8uEzPOeButGVs0XYCve0hAejs/ZfcbFZskm0bVqghRwFUAKx3cnUvbPX2WEfndyycQY4CqABYqijLB/9ugmy5W82NfUedgObvcAAY058fKaUnjbCz2xpLpXBpECIAkiNr9/a7Sw+MJd5pFa1ZHQYiANr8313vv0uFtKnec0pJbqSBORAB0ObH7nr/q8UyTVUIbh6ACIC2V3SbFhhu5SQA0cc+w+Rw+M7OR2lsuL/Bbbpn1RRxBMgasS77ZFxrdJkMQ9mr8a20de1crbHS3jACuC0NWkq+3oHXxgQBOFaMKdCxRm5bIAKgrQJ5ngRrS76cBLtFufHCDXtl3NbGDYthBKAxjtw2MwDgNigMzzZyu+ZhDUjEFEie8qZ67o/XiaG2AlRulD/lfmZrgJ59HhwAKJUgVoDa0EEFIPxE2LAI5jbVawv1261QAdBWR9xVggwTYLj8H3UhTB4non0CnLvgMEz2JR7cLvpZRwG4EcBQGRFtPQJgue9hyfudrcHdch4UAIa0oGrobjXYMAeotrqDvSXQ77WBAcBSFamiOS6Dard+V5NhUiEkALQTX/c9YseIBzMKQADQ0/t7nhh2PkwXYhRAAQCu96/DF0eBt2cIKABoF75EtTALQ8bKVxj730IgPADG9CfUrYEdqVD4NAgBAEs93N3K71Ep0JgKhdPhWicEALT5f6jef+9ww+2gbu+FOOoQXkvcrQ29tjPkv2FLgIbtEeHnAQgjgHYCHBkAbTpIALz2/LsyoHY11N22h1YfGbZHhE0HkVIgPhdnR4j2LjGv20BaOwWEFEg7AoQt/RlKwhwBWklatZ2h8sEU6JczCcCqgd16XYYqUNjat2EtgJPg1kBbtZ2h9Be29m3oDMJqgTQJtrwONdw8wJD/S4yELQkjAaCtfYd0vCH9CakD3FYIMdgwEZbTwowChvr/S5xEL4G+2Lhq7j7yuowA/ChPSpPfrg+r/d7ejGlxEgoA2g1xVctPl5HgS0rJLQSGie+r7ZcR4LMlqDydgwKAPAtI9gTJb+3h9lEhHcEfKgV8y+EQAJR5gHUUkNNlBJDeUOriy48G5eV4Yq8FeIjJL0wVqBracVfUvgOR0UB+vhUoZKI4HYhimzz1+t3l+uS3NfBfYEfI/eEAGDAKaFMnr+3D1/73joFJgXYjgXZznNdAtlw3VO8vAiEC0DMhtgSVl3MklZN9UHxBhhePWa9zwCTR+tUrnxd2FyyrQDcUMG4NWDmAe64t7A7YI1HgUqC9IAUC2SvUUzU50nj1v8MGP+Qc4Doayz4Z2TGKCAFk2gNdBbrVHQ9aI1i9p99fH+SE95aDoFOgG6OBjAS9C0mrgwBV5z9yBgG4UqiMBrKNIBoIz7KdY4WV66OgfOTfCcAdtcvcYL+1wOMcQYJetm242MP0yMCv30UAGlUvQHzYTZYrECuAITl9/RGLGPSNfiUAjUKxWUwFCEBMv9KqRgUIQKNQbBZTAQIQ06+0qlEBAtAoFJvFVIAAxPQrrWpUgAA0CsVmMRUgADH9SqsaFSAAjUKxWUwFCEBMv9KqRgUIQKNQbBZTAQIQ06+0qlEBAtAoVEuzsmFuvznut3Le9ca563/Xh2vd+/1v+ZzXDW/c1tzikeM2BOBYo5stypMlJMAlmGfcO1AfX/L6pDpCoXcmATjQbNerj3jsoN5DujMIhU4vvAdjtehTenfZ+y89u/ejpk3ycF958tv0Z5muJChHgJ9vkJFHo3jo4UfEjowSX3iX2E8pYQHYBb0EP+pRn3bt+iUgPc6DAWD3CPEoqU2P32+dKzBIeiSjA0yqFB6AYPn86KB/6/MgniIREoDAjzZ5JAD1u0LPGUIBwN7+dD7CjQruAWBvf3rQ35svhKgkuQWAvf2UwL/1pTIqSBXJ5Ys13AGw+NOcayWlLjbVPTwSONf7fF5fsFdGMWmz30dU/7vuJ5K/14U5+dsKD+TaA+HydbJuAChBUh9eO7v7k15Pjvq2yIeXDYseAoEs4FU4VgDD1cvFXQBQ0h0J/hmHu+drLvBcUzePX18agEm9vruAP+oVJgKxfFq0OgBfH7QhzfVE7giA678XIOqb5M+eSyxdOl0WgJzz2cEPFfT3IHkQDMvOC5YE4MTgf1nVTCnVSay28wzbfpcmnfXSwCXfTLMcADlnmeyO3qG59DC8GlUnjgrLQbAUACe8uxf6FaC9YO1eCjLyls+lIFgGgFLx+d7rNLnRg2nOABWvPmLgO5WlRCqvZ13izrSVAJCqhEyWrIcEvrwEzuWSvNXoR59X1mRqBcn69cuMAksAMKD3Z6pjDUXjeQPmak8rjAKrAGDt/d2sOBrjbOnTOvdlLdFprQKA5P6WBRnJJZnyTMSkIyWSV7e+n3jpL189HYCO9IfBPzt6yvd3VO+mp0ErACA1f+1Gt2UmUYvE4PTLMM4JpqdBKwBgyf+n9xzTI26xCyjzAdm+ojmeU0ofNSeMbrsCANo9P7L3/mm0EPy8fgVyztq53PR5gEcAmP70x+opn2C4b4MAGHoNTn5PCd/+DzWkQdNH8xVGgKyRPqU0/Zo114vU1lLRm+3P6cF0KaERgECUePMnAQgUfCuYQgCUXvAmmNI8uObe/MkRAC5EzzWYACj19SaY0jy45t78yREALkTPNZgAKPX1JpjSPLjm3vzpbgSAi6jgBnMdQLkOEDwe4MwjAAQALuj3BhMAAkAAJirAOcBE8fnVm7wjYWoMTv1yCQBt1YBBE0sBAsAUKFZEK60hAARAGTKxmhMAAhAropXWEAACoAyZWM0JAAGIFdFKawgAAVCGTKzm8ADEciet8abA9HUAb4LxemMpQABi+ZPWKBUgAErB2DyWAgQglj9pjVIBAqAUjM1jKUAAYvmT1igVIABKwdg8lgIEIJY/aY1SAQKgFIzNYylAAGL5k9YoFSAASsHYPJYCBCCWP2mNUgECoBSMzWMpQABi+ZPWKBUgAErB2DyWAv8BVKt3/SBvLGQAAAAASUVORK5CYII=;" parent="1" vertex="1">
          <mxGeometry x="400" y="450" width="160" height="160" as="geometry" />
        </mxCell>
        <mxCell id="R1StidT4puEd5YkUCCja-18" value="" style="endArrow=none;dashed=1;html=1;rounded=0;dashPattern=8 8;opacity=80;" parent="1" source="R1StidT4puEd5YkUCCja-15" edge="1">
          <mxGeometry width="50" height="50" relative="1" as="geometry">
            <mxPoint x="710" y="500" as="sourcePoint" />
            <mxPoint x="720" y="330" as="targetPoint" />
          </mxGeometry>
        </mxCell>
        <mxCell id="R1StidT4puEd5YkUCCja-19" value="" style="endArrow=none;dashed=1;html=1;rounded=0;dashPattern=8 8;opacity=80;" parent="1" source="R1StidT4puEd5YkUCCja-15" edge="1">
          <mxGeometry width="50" height="50" relative="1" as="geometry">
            <mxPoint x="420" y="440" as="sourcePoint" />
            <mxPoint x="240" y="330" as="targetPoint" />
          </mxGeometry>
        </mxCell>
        <mxCell id="R1StidT4puEd5YkUCCja-20" value="" style="endArrow=none;dashed=1;html=1;rounded=0;exitX=0.481;exitY=0.004;exitDx=0;exitDy=0;exitPerimeter=0;dashPattern=8 8;opacity=80;" parent="1" edge="1">
          <mxGeometry width="50" height="50" relative="1" as="geometry">
            <mxPoint x="480" y="450.6400000000001" as="sourcePoint" />
            <mxPoint x="480" y="240" as="targetPoint" />
          </mxGeometry>
        </mxCell>
        <mxCell id="R1StidT4puEd5YkUCCja-21" value="" style="endArrow=none;dashed=1;html=1;rounded=0;dashPattern=8 8;opacity=80;" parent="1" source="R1StidT4puEd5YkUCCja-15" edge="1">
          <mxGeometry width="50" height="50" relative="1" as="geometry">
            <mxPoint x="410" y="472" as="sourcePoint" />
            <mxPoint x="240" y="720" as="targetPoint" />
          </mxGeometry>
        </mxCell>
        <mxCell id="R1StidT4puEd5YkUCCja-22" value="" style="endArrow=none;dashed=1;html=1;rounded=0;exitX=0.988;exitY=0.876;exitDx=0;exitDy=0;exitPerimeter=0;dashPattern=8 8;opacity=80;" parent="1" edge="1">
          <mxGeometry width="50" height="50" relative="1" as="geometry">
            <mxPoint x="560" y="593" as="sourcePoint" />
            <mxPoint x="721" y="716" as="targetPoint" />
          </mxGeometry>
        </mxCell>
        <mxCell id="R1StidT4puEd5YkUCCja-23" value="L" style="text;html=1;align=center;verticalAlign=middle;whiteSpace=wrap;rounded=0;fontFamily=Noto Sans;fontSource=https%3A%2F%2Ffonts.googleapis.com%2Fcss%3Ffamily%3DNoto%2BSans;fontSize=24;" parent="1" vertex="1">
          <mxGeometry x="240" y="300" width="60" height="30" as="geometry" />
        </mxCell>
        <mxCell id="R1StidT4puEd5YkUCCja-24" value="R" style="text;html=1;align=center;verticalAlign=middle;whiteSpace=wrap;rounded=0;fontFamily=Noto Sans;fontSource=https%3A%2F%2Ffonts.googleapis.com%2Fcss%3Ffamily%3DNoto%2BSans;fontSize=24;" parent="1" vertex="1">
          <mxGeometry x="660" y="300" width="60" height="30" as="geometry" />
        </mxCell>
        <mxCell id="R1StidT4puEd5YkUCCja-25" value="C" style="text;html=1;align=center;verticalAlign=middle;whiteSpace=wrap;rounded=0;fontFamily=Noto Sans;fontSource=https%3A%2F%2Ffonts.googleapis.com%2Fcss%3Ffamily%3DNoto%2BSans;fontSize=24;" parent="1" vertex="1">
          <mxGeometry x="470" y="230" width="60" height="30" as="geometry" />
        </mxCell>
        <mxCell id="R1StidT4puEd5YkUCCja-26" value="LS" style="text;html=1;align=center;verticalAlign=middle;whiteSpace=wrap;rounded=0;fontFamily=Noto Sans;fontSource=https%3A%2F%2Ffonts.googleapis.com%2Fcss%3Ffamily%3DNoto%2BSans;fontSize=24;" parent="1" vertex="1">
          <mxGeometry x="250" y="740" width="60" height="30" as="geometry" />
        </mxCell>
        <mxCell id="R1StidT4puEd5YkUCCja-27" value="RS" style="text;html=1;align=center;verticalAlign=middle;whiteSpace=wrap;rounded=0;fontFamily=Noto Sans;fontSource=https%3A%2F%2Ffonts.googleapis.com%2Fcss%3Ffamily%3DNoto%2BSans;fontSize=24;" parent="1" vertex="1">
          <mxGeometry x="650" y="740" width="60" height="30" as="geometry" />
        </mxCell>
        <mxCell id="R1StidT4puEd5YkUCCja-44" value="Listener" style="text;html=1;align=center;verticalAlign=middle;whiteSpace=wrap;rounded=0;fontFamily=Noto Sans;fontSource=https%3A%2F%2Ffonts.googleapis.com%2Fcss%3Ffamily%3DNoto%2BSans;fontSize=30;fontStyle=1" parent="1" vertex="1">
          <mxGeometry x="410" y="590" width="140" height="69" as="geometry" />
        </mxCell>
        <mxCell id="WWCgPPryquit8MNks9SX-1" value="object based" parent="0" />
        <mxCell id="Lrp7V4lqx97EPty1hhzE-1" value="" style="endArrow=classic;html=1;rounded=0;endFill=1;endSize=16;dashed=1;dashPattern=8 8;opacity=80;" parent="WWCgPPryquit8MNks9SX-1" edge="1">
          <mxGeometry width="50" height="50" relative="1" as="geometry">
            <mxPoint x="1040" y="920" as="sourcePoint" />
            <mxPoint x="1880" y="920" as="targetPoint" />
          </mxGeometry>
        </mxCell>
        <mxCell id="Lrp7V4lqx97EPty1hhzE-2" value="" style="endArrow=classic;html=1;rounded=0;endFill=1;endSize=16;dashed=1;dashPattern=8 8;opacity=80;" parent="WWCgPPryquit8MNks9SX-1" edge="1">
          <mxGeometry width="50" height="50" relative="1" as="geometry">
            <mxPoint x="1040" y="920" as="sourcePoint" />
            <mxPoint x="1040" y="160" as="targetPoint" />
          </mxGeometry>
        </mxCell>
        <mxCell id="Lrp7V4lqx97EPty1hhzE-3" value="" style="endArrow=classic;html=1;rounded=0;endFill=1;endSize=16;dashed=1;dashPattern=8 8;opacity=80;" parent="WWCgPPryquit8MNks9SX-1" edge="1">
          <mxGeometry width="50" height="50" relative="1" as="geometry">
            <mxPoint x="1040" y="920" as="sourcePoint" />
            <mxPoint x="1840" y="400" as="targetPoint" />
          </mxGeometry>
        </mxCell>
        <mxCell id="Lrp7V4lqx97EPty1hhzE-4" value="Z" style="text;html=1;align=center;verticalAlign=middle;whiteSpace=wrap;rounded=0;fontFamily=Noto Sans;fontSource=https%3A%2F%2Ffonts.googleapis.com%2Fcss%3Ffamily%3DNoto%2BSans;fontSize=24;" parent="WWCgPPryquit8MNks9SX-1" vertex="1">
          <mxGeometry x="1040" y="160" width="60" height="30" as="geometry" />
        </mxCell>
        <mxCell id="Lrp7V4lqx97EPty1hhzE-5" value="Y" style="text;html=1;align=center;verticalAlign=middle;whiteSpace=wrap;rounded=0;fontFamily=Noto Sans;fontSource=https%3A%2F%2Ffonts.googleapis.com%2Fcss%3Ffamily%3DNoto%2BSans;fontSize=24;" parent="WWCgPPryquit8MNks9SX-1" vertex="1">
          <mxGeometry x="1796" y="363" width="60" height="30" as="geometry" />
        </mxCell>
        <mxCell id="Lrp7V4lqx97EPty1hhzE-6" value="X" style="text;html=1;align=center;verticalAlign=middle;whiteSpace=wrap;rounded=0;fontFamily=Noto Sans;fontSource=https%3A%2F%2Ffonts.googleapis.com%2Fcss%3Ffamily%3DNoto%2BSans;fontSize=24;" parent="WWCgPPryquit8MNks9SX-1" vertex="1">
          <mxGeometry x="1834" y="873" width="60" height="30" as="geometry" />
        </mxCell>
        <mxCell id="Lrp7V4lqx97EPty1hhzE-7" value="" style="shape=image;verticalLabelPosition=bottom;labelBackgroundColor=default;verticalAlign=top;aspect=fixed;imageAspect=0;image=data:image/png,iVBORw0KGgoAAAANSUhEUgAAAMAAAADACAYAAABS3GwHAAAAAXNSR0IArs4c6QAADFpJREFUeF7tnYuR3DYMhqVKkqskcSXJVRK7ktiV2KnE7oQx7iSfdk8PACRBafntTGYyPkiifuATAT6kceCHAh0rMHZ879w6CgwAQBB0rQAAdO1+bh4AiIGuFQCArt3PzQMAMdC1AgDQtfu5eQAgBrpWAAC6dj83DwDEQNcKAEDX7ufmAeDEMZBS+nsYhj+GYfh98Z+0+Mf037dhGP6T/x/HUf6Nn1EBADAKFmE+Bf4/U9BrLinB/2kYhm+AoJHrzQYAbHpVtU4p/TkMw7+GwL9vj/QIz0CgdxMA6LWqajkF/9dCFxEIPhc610OfBgBO4N4p5ZEnf8nfx3EcJS3it6MAADQOj8JP/vu7+TCOo6RF/DYUAICGoZFSktGd75Wb8ERNsK0wAFSOvr3Tp5Qk7ZGhzpq/z+M4Pte8wJXPDQCNvBf09J/vjl6AFKhRpG9cNqUk4/wfg1pFLwAAQaGmvMxPAJLStJQZvcCKkqRApcLLcJ7g9GduGSNCAGCI0oqmlcb9j1rM5BgAHMVIzN+D8//5ppgYA4CYAD+6SiMAKIQB4Cg0Y/7eCAB6AACICfCjqzSqAQAAAI5CM+bvjQBgFAgAYgJcc5WUkqwBkrVAIb+fK0MZ8gaAkFhTXSSlJGv/ZQNMxE+2TD5FXOhq1+Cp0MhjwWkQ+f+GnwGgEQBy2aA0iKf/jo8BoC0AuXuANa2n+AUATZy0sak8J0Dqc+BWeoA2cX9z1UoQMPOr8C0AKESKMCkMAU9+pdMAQClUhNkEgWyRzJkfIOc3OAsADGJFmE57BWS3mBTIFhDkPUCf2ABv8xIA2PQKs55elyLvBZ1BWINBgl7eDcorEZ2eAQCncC0Om3qHl0vzpC/jAQAooyNnuagCAHBRx9HsMgoAQBkdOctFFQCAizqOZpdRAADK6MhZLqoAAFzUcTS7jAIAUEZHznJRBQAgyHHTxNZ8tV8ftGM8P8gBG5cBgEr6Tzu+fptmco+2PspHLPjiYyVf7J0WAAqKvvisac47/wWELyxvKOiYnVMBQAGdHZ811VyVLz5qVMq0AQCngItVmzlPe83VeamtRiWnDQAYhZue9n8FvtJEWsgGF6OftOYAoFSqUpqjvPqLGR+4sKiltAWAHaGmoUt52tdOczTukqFT2e31awhVcxA2+woAwIo+jdIcTaySCmlUMtgAwEKsQntyDfK7TEmFXLKtH9Q9ACdLczSuJRXSqKS06RaAE6c5GteRCmlUUth0BUDg2L1C+mwTUqFsCYehCwAu/rTfcjMzxQCwr8AJxu4LuGj3FKRCmQo/XA9wwaI204VMkOUI+DAAPGiao/EtL8HVqLRhc3kALjJ2n+Ei1aEsmFPJ9N7osgAEf2Joqdy8Xl/+7V+n7qUPY27AqeiVAZDgi1yjI+/h/DKOowAgnzeSF9h+dOpe4zAKYoeqAHAs2vPa7qzgrzwet/LVgleja5Wa7ABgXbCXNGccR3nqr/5+9gDJqHWEOamQUWUAuBXsJs3ZCX55Vbl86PqMP1Ihg1cA4FWs1TRnBwCpPc5SAK81EwiUEPQMgOppv6bjCQvgtWayVkgBQY8AZH9K6KQF8L27qQcA4EYB+YzQB4UmhyYnLYDX2g0EB97sqQcosmRgWlJ91gJ4zd2sGt2BAAAOn/e3BtNiu6/Gw1qby4SdDOuyof7OEwBgDM2GBbAEr+Wzqfd3Rk+w4msAsAMgT/+jl90az6oyl/pFPpuas/wCCOgBVMG2adSqAB7H8eVhVWAEisJ44V16AAMPDQvgH+M4Ps1NTSlJEZ6TDsmpWEIt31s2+P9Upikl62rQ7FGghgXwzczuBKKkYrkQZM+JnCooHI0BAINoDQvgd6s8C7ZFUiLpDV6Weff2AwCDxwvk34arvZnO+f/9wQUhkFN32RsAgCEkGxXAN/l/ZQi6AwEAlAA0LIAPV3YW7glmRbroEQBAD4CM/beYAVbt8qoEgagjtcGnn9tPpSd6uJlkANAD0GQP8Fb+v9bsihDMl3s4GABAD0CLGeDd/H8DAtmsI7DmDpFqlFl+3nW2f+klrtJbAIDGza8zsC32AB/m/xsQSPCXmCdQqrNqlj3vknNx7bEAoFCqYQGsyv+3bqHVsO3UHgBQxJbbJHImuNUMsCX/34FA0iFJiyJSomUzAMAd3YoDgwFoUQCb8/8dCGQES5aOREIAAIo4dpsEA9CiAHbl/3uCBr8uHgDc0a04MBiAFgVwVv6/0xtILzCnRQql3SYA4JZOcWAUAK0K4BL5/0FvIGnR/MX7GqkRACji2G0SCECLGeBi+f+RwIvvpsl9lgQBAI7Ez/l7IAAtCuDi+b9G68VHRgSEXBgAQCO61yYQAOvGG+8tLY+rkv9bGjYN/c4zyh4YAMAiuNU2EIDwArh2/u/QWtIj2ZA/p0kaIADAKrTFPgKARgVwWP5v0fveduohBAr5LVOmGQ55E5+8dPjUv8suhYhQtdEMcJP8P0LPM14DAHa8ErC8eO3qzfP/MwZqrTYBwD4A4QXw2fL/WoF3lvMCwD4A0QXwJfL/swRviXYAwIaKjQpg8v8SUW04BwBsA9BiBpj83xC8JUwBYBuAFjPAfNaoRFQbzgEA2wCEF8DTGxjkLW0P9/YFQ0yGmgLANgAt9gBIa3iFeSACALAidqMCeNkSXmEeBAEAnBMAaRUQBEAAAOsAtCiAt9xNYVwRBAA4PwDSQj5mUQkCAFgHoFUBvOdmJskqQAAAd6JmFsDz8KVmvbzHnUDgUW3nGAAoC8DL93grv5aQb/4WhAAA3gOQUwC/LGUo+A2vLVd38e7+gnG+eSoAKAjA/VLmyu/mZMKsACEA8B4AbwG8upTZsXXT4lbmCixqrdgCwEKUzAJ4s0CtvLMMCDIgAIAAAOQSlSGQSzBh5gABAG4BcBfAmq2MEwQ1X1XOhJkRAgAoA4B6K2MABMwVGCAAgFsAvAWwvAPng1b36XUrNd/XT0+gdAYA3ALg3QRvfupWnisAAABQKjCZZY4AufbyVoQAAJTupwd4A8BbAKvz/zWfVIIAAABAqUA+AKb8f6tVhWeNAUDpfnqANwC8BbA5/9+BoNRGfAAAAKUCbwB4C2BX/r8DgTcVW54SAJTupwd4naWV9fvflZrdmGkmwKznLTBrDABK0QEgb5lCVgG856PMCTMAAAClAnkAFMv/N0aIZNnE/Jki/Q2xh1itFT3AKwDNC+CdmsDzlXd6ACUCAPAKgKsArpH/b/QE1tEhAAAAnQIZBXC1/P++5Y5NNQCgc//QfQ+QMeJSNf9f+g8AlNHsMAOAlLzj7gDgCLizHQIA/gK46ATYwZAoNUAlcgDAVwCH5f/id1KgStE/DH3XABkFcJEFcFq3AoBWKbtd1z3AFQpgegB7UFuOAIBhkFcNWn9h+T8AWF1js+8dANcMcNQE2OxKUiBbUFusewfAMwMcWgDTA1jC2W7bLQAZBXDY+D89gD2grUf0DICstJTxdesvNP+nB7C6x2bfMwCuGeDo/B8AbAFtte4ZAE8BHJ7/A4A1pG32PQPgKYDD838AsAW01bpLAK5UAAOANaRt9r0C4CqAW+T/AGALaKt1rwB4CuAm+T8AWEPaZt8rAJ4C+PM4js82ectYMxNcRse1s/QKwGUKYHqAesEvZ+4OgIwCOHwCbHY9PUA9CHoEwFMAN8v/6QHqBX+vPYCnAA7dAHPvcnqAehD02AN4CuAmE2CkQPUCfz5zjwB4CuBm+T8pUF0IugLAWwC3mgCjB6gb/N3VACmlyxXA9AB1IeitB/AUwE3zfwAAgGIKON8C3TT/B4Bi7l89UW89gLkAbp3/AwAAFFHAWQA3nQCjCC7i+t2TdNMDOAvg5vk/PUBdCHoC4JIFMAAAQBEFnAXw0ziOP4o0IOMkLIXIEO/g0J56AGsBfIr8nx6gXvB3MxHmLICbLoBbup0eoB4EXfQAKSX50qIsgrP8TlEA0wNYXGa37QUATwHcfAKMYVB7QFuP6AUA8xLoM0yAAYA1nO32vQBw2QKYFMge1JYjHh4AZwF8mvwfACzhbLftAQBPAXya/B8A7EFtOaIHAMwF8JnyfwCwhLPdtgcArAXwaSbAKILtAW09ogcArAXwqfJ/egBrSNvsHxqARyiAAcAW0FbrRwfAXACfLf8HAGtI2+wfGgCbFFj3qAAA9Oh17vmXAgBAMHStAAB07X5uHgCIga4VAICu3c/NAwAx0LUCANC1+7n5/wE0M8YMMtePuwAAAABJRU5ErkJggg==;" parent="WWCgPPryquit8MNks9SX-1" vertex="1">
          <mxGeometry x="1149" y="680" width="180" height="180" as="geometry" />
        </mxCell>
        <mxCell id="Lrp7V4lqx97EPty1hhzE-8" value="" style="shape=image;verticalLabelPosition=bottom;labelBackgroundColor=default;verticalAlign=top;aspect=fixed;imageAspect=0;image=data:image/png,iVBORw0KGgoAAAANSUhEUgAAAMAAAADACAYAAABS3GwHAAAAAXNSR0IArs4c6QAACodJREFUeF7tneGV1DoMRpNOoBO2E6iE3UrgVQKdQCd+oyUDs7OT2IolO7HunMPhxzp29Om7Y8VxMvPEBwUCKzAHjp3QUWACAEwQWgEACJ1+ggcAPBBaAQAInX6CBwA8EFoBAAidfoIHADwQWgEACJ1+ggcAPBBaAQAInX6CBwA8EFoBAAidfoIHADwQWgEACJ1+ggcAPBBaAQAInX6CBwA8EFoBAAidfoIHADwQWgEACJ1+ggcAPBBaAQAInX6CBwA8EFoBAAidfoIHADwQWgEACJ1+ggcAPBBaAQAInX6CBwA8EFoBAAidfoIHgI4eSCn9mOf5qeMpZIdOKX2apunrNE1f5nn+nT3gZA0AoFPCxPzTNH2a5/mwOUgpifGfF4meL+f60kkut2EPK75bxAfo+Gp+OZWjAnB7jjeSDQcBADQG4t5YRwNgKXm+TdP0YUWajyOVQgDQEIBH36pHAuCu5FlTRq4DnkaBAAAaAbBSUhyiBEopybe9fOvLBW/JZ5hSCABK0l3ZZs38R7gGWEoeuSDXfmQW+Kk96GjtAcA5I1vm7w1AYckzdCkEAI4A5MzfC4AdJc+aSt8vC1kvZ74eAAAnAErM3wOAipJnTalTrwoBgAMApeZvDUBlyXOvlNT/p787DADGAGjM3woAw5LnqharQMa+GaI7rflbAOBQ8gyx+nM1HDOAEXp7zO8NwN5zWpFkiJLnPjYAMACgxmged4IpecqTCgDlWj1sWWN+jxkgpfR5uatbGdnr4bLtQS50T3/Da00MAKiwSa35rQGwOJ8bOX4e/VmFitT9PRQAdqpoZTaLEoiSZ2cSZTv6/kPjHmllfssZwGiNf/iSh4vgSm4tzW8JgPSVUvq1sY8/F3mIkgcAcjbY+Lu1+R0AkG3NsrNz7WGWteiGWtvXpJgSqFAtD/NbA7DMArfP8eaiC1fyMAPkLPHg717m9wBAAUHIkgcAlAB4mt8LgILrgbAlDwAoAPA2vzMA8njj/cPtckNL9u8Pe2NLkd7XplwDrCjWwvyeADwohb7P8/xFa5DR2wNA45r/3RTs/GKsZWl06O0MNZACwJ16rb75r8Na3AmuMUD0YwHgxgGtze9dAkU3d0n8ALCo1MP8AFBiUd82APBnC8Hri2oNpJbVFVU/lEAGqld0ER4AS/PL9uHLprSkyQcAaNSybxsaAEPz/11iBAB7k3r2GBYAD/Mva+/MAJ6ONe47JACG5n/3ehBmAGOHOncXDgBD88vNJXk14JsPADg71rj7UAB4m58SyNidDboLA4Ch+Td3UjIDNHCt4RAhAGhlfmYAQ2c26sodgOXVfI3CeTiMPCGlujm1crJFe+iZAXqmWj92CwBUy4L6EJocUWR+ZoAmuTAdBADychabHwDyYh6tBQCsZ2TXA+OUQEez+Pb5AMBjfXaZnxngXOaXswWA9znbbX4AAIB3CmhLgs4SVv8ItDZedoP2zTgzwD/9f8/z/LE2HQBQq2Db4wHgj94m5qcEamtei9EAYJpM35DGDGBhy3Z9RAfA1PzMAO2MazVSZADMzQ8AVrZs188RAWjx2j6p+V3ekkYJ1M68FiMdDoCzLwsCgIUt2/UBAMZaA4CxoM7dAYCxwABgLKhzdwBgLDAAGAvq3B0AGAsMAMaCOncHAMYCnxmA5VfmjRXZ7u7RmzVangAAGKt9cgCaP73Xe9UPAADgrwJaeC2kA4A7FXsLUptUrYmOFK/23Gu1kuN7x88MYJHFmz60JuptgNvwteduIV3v+AHAIosAsFtFAKAEcv8SKnUnM0CpUop2WlF7fyMoQnvY9Mzxas+9ViuuAR4oCAAWttrXBwDs023zKK2oAOCQhMIutbkq7HazWe98u9efWlF7C1Kb1DPHqz33Wq0ogSiBuq+DswxqgfFGH9pvFWYA54Rs5+pb69G9nswrjYMSqFSpwnbRgC+U5bDNAMA4NQBgLKhzdwBgLDAAGAvq3B0AGAsMAMaCOncHAMYCA4CxoM7dHQ6AaZqenGOW7uW9QPImaPMPAJhL6trhEQFwDXjpvPo16GsnCQAt0mc3RlQArgp+tJ4JAMDOnC16ig6AaGwKAQC0sK3dGADwR0szCADAzpwtegKAfyp/sXhFBwC0sK3dGADwVstqCADAzpwtegKA9ypXQQAALWxrNwYAPNZyNwQAYGfOFj0BwLrKz5et2S/aJACAVrG+7QFgW381BADQ19Da0QEgr5gKAgDIC3qkFi0A+NE54A/TNMm/mk8xBABQI3P7Y90BaB/S2xEvhvx62fz2uRUEANA747rxhwdA5GgJAQDoDNi7dQgArCG4bJ34b20THQD0trRu/DAAtIIAAHQG7N06FAAtIACA3pbWjR8OAGMIvl9+4+HlthwCAJ0Be7cOCYAxBD+naZKtE6+PWAJAb0vrxg8LgBcEAKAzYO/WoQHwgGCapl+apJ79VZCaWI/YNjwAxhBIGaS66wwAfbEAgEV/w5tlqowCgEou88YAcCNpDwgAwNzTqg4B4E6u1hAAgMqv5o0B4IGkLSHwBiClJLtxZeuG3LPgc6cAAKxYohUEngAsMTwvIcr/q3uYopIBABuZbwGBFwApJVmNul+SfXPTLqrpb+MGgIwLvCHwAGAxv5Q+a0uyux/6Hw0aACjIqCcETgCI+T9lQnu3j6lAiuGaAEBhSr0gsAYgpSRPv5X+2J3bW7ILZe3eDAAUKfCAwBKAlbq/JMKwJREAlNjD8WaZMQAlpc9axCFLIgBQAiDNLWcCKwDuljx3RPV6SLiSCAB2WsUKAkMAZMlTtRFvI/Ti18DslO8whwFARSosILACYJmZ5OJXLoItPiHuGQBApVVqIbAEwLo8W0oiuUAWGIb8AIBBWmsgsAZggUDuAchsYFYSjbqNAgAMAKj55vUA4BpSSomSKJNfADACYC8EngAs5yTXBPJ6SIvZQFaJhiqJAMAQgD0QeAOwnJOYf2tvkFaFYXaWAoA29QXtNdcELQCgJFpPGgAUGHpPk1IIWgLgUBJJl09nXiUCgD3uLjymBILWABiXRD/neX4qlOOQzQDAOS05CHoAcFMSycXx9YkxrRK/53n+qD3oaO0BoEFGtiDoCUDlPYNTlz7XtANAAwC2Vod6A3BTEsk9g9xDNFe1htkrBACNAFiD4AgA3JVEuZ+TGqL0YQZoaPzboe7LoSMBUFgSDVH6AEAnAO5ngqMBkCmJhil9AKAjALcQHHkl5W62Ov2S56OUcw3QEQQx2GUGeOl4CtmhU0pyYSzneer1/rVAASBrARqMrAAAjJxdYssqAABZiWgwsgIAMHJ2iS2rAABkJaLByAoAwMjZJbasAgCQlYgGIysAACNnl9iyCgBAViIajKwAAIycXWLLKgAAWYloMLICADBydoktqwAAZCWiwcgKAMDI2SW2rAIAkJWIBiMrAAAjZ5fYsgoAQFYiGoysAACMnF1iyyoAAFmJaDCyAgAwcnaJLasAAGQlosHICgDAyNkltqwCAJCViAYjKwAAI2eX2LIKAEBWIhqMrAAAjJxdYssqAABZiWgwsgIAMHJ2iS2rAABkJaLByAoAwMjZJbasAgCQlYgGIysAACNnl9iyCvwPbpSW/azZNW0AAAAASUVORK5CYII=;rotation=120;" parent="WWCgPPryquit8MNks9SX-1" vertex="1">
          <mxGeometry x="1390" y="265" width="120" height="120" as="geometry" />
        </mxCell>
        <mxCell id="Lrp7V4lqx97EPty1hhzE-9" value="Emitter (x, y, z)" style="text;html=1;align=center;verticalAlign=middle;whiteSpace=wrap;rounded=0;fontFamily=Noto Sans;fontSource=https%3A%2F%2Ffonts.googleapis.com%2Fcss%3Ffamily%3DNoto%2BSans;fontSize=30;fontStyle=1" parent="WWCgPPryquit8MNks9SX-1" vertex="1">
          <mxGeometry x="1480" y="295" width="260" height="50" as="geometry" />
        </mxCell>
        <mxCell id="Lrp7V4lqx97EPty1hhzE-10" value="Listener (X, Y, Z)" style="text;html=1;align=center;verticalAlign=middle;whiteSpace=wrap;rounded=0;fontFamily=Noto Sans;fontSource=https%3A%2F%2Ffonts.googleapis.com%2Fcss%3Ffamily%3DNoto%2BSans;fontSize=30;fontStyle=1" parent="WWCgPPryquit8MNks9SX-1" vertex="1">
          <mxGeometry x="1268" y="812" width="260" height="50" as="geometry" />
        </mxCell>
        <mxCell id="Lrp7V4lqx97EPty1hhzE-11" value="" style="endArrow=classic;html=1;rounded=0;strokeWidth=2;endSize=12;" parent="WWCgPPryquit8MNks9SX-1" source="Lrp7V4lqx97EPty1hhzE-8" target="Lrp7V4lqx97EPty1hhzE-7" edge="1">
          <mxGeometry width="50" height="50" relative="1" as="geometry">
            <mxPoint x="1180" y="550" as="sourcePoint" />
            <mxPoint x="1450" y="620" as="targetPoint" />
          </mxGeometry>
        </mxCell>
      </root>
    </mxGraphModel>
  </diagram>
</mxfile>
